PathFileType	4	(X/Y/Z)	./resultDataOpenSim/trcMotMarkerGrf/sub10/qtm-04-04.trc
DataRate	CameraRate	NumFrames	NumMarkers	Units	OrigDataRate	OrigDataStartFrame	OrigNumFrames
250.000000	250.000000	8	24	m	250.000000	66	520
Frame#	Time	L.Toe.Tip			R.Toe.Tip			L.Ankle.Lat			R.Ankle.Lat			L.Ankle.Med			R.Ankle.Med			L.Heel			R.Heel			L.Knee.Lat			R.Knee.Lat			L.Knee.Med			R.Knee.Med			L.Thigh.Upper			R.Thigh.Upper			L.ASIS			R.ASIS			V.Sacral			L.Acromium			R.Acromium			C7			L.Elbow			R.Elbow			L.Wrist.Lat			R.Wrist.Lat
		X1	Y1	Z1	X2	Y2	Z2	X3	Y3	Z3	X4	Y4	Z4	X5	Y5	Z5	X6	Y6	Z6	X7	Y7	Z7	X8	Y8	Z8	X9	Y9	Z9	X10	Y10	Z10	X11	Y11	Z11	X12	Y12	Z12	X13	Y13	Z13	X14	Y14	Z14	X15	Y15	Z15	X16	Y16	Z16	X17	Y17	Z17	X18	Y18	Z18	X19	Y19	Z19	X20	Y20	Z20	X21	Y21	Z21	X22	Y22	Z22	X23	Y23	Z23	X24	Y24	Z24

66	0.26	-1.4247921	0.067349757	-0.18894303	-0.72459864	0.039447178	0.028381523	-1.4039432	0.20398916	-0.22402889	-0.86821783	0.053804415	0.054249056	-1.3795261	0.19671977	-0.1446952	-0.84485875	0.079238923	-0.027989573	-1.4380014	0.2558327	-0.17508682	-0.91471002	0.028820539	0.0041081327	-1.0811367	0.40222448	-0.22243358	-0.83454541	0.45119122	0.084773955	-1.0687069	0.35730589	-0.10986025	-0.83186714	0.45826659	-0.043062431	-1.0060283	0.76885422	-0.23781369	-0.95206002	0.854312	0.14011483	-0.93666258	0.88212729	-0.18469925	-0.90172854	0.93005945	0.048835442	-1.1192191	0.9207874	-0.043608908	-0.95408052	1.3817085	-0.20037534	-1.0096951	1.362476	0.11638795	-1.0618337	1.404121	-0.054744837	-1.0498112	1.0457726	-0.28624431	-1.1552497	1.0490511	0.11796386	-0.84822087	0.91945891	-0.20118562	-1.1358571	0.82357632	0.20201187
67	0.264	-1.4165641	0.070371995	-0.18980189	-0.72454371	0.039401007	0.02832073	-1.3940598	0.20693436	-0.22299569	-0.86827132	0.053791957	0.054264616	-1.3696216	0.19869194	-0.14377052	-0.844721	0.079202518	-0.028051529	-1.4273922	0.2587525	-0.17355852	-0.91476393	0.028808349	0.0041038333	-1.0702338	0.40238944	-0.22171462	-0.83236232	0.45114446	0.08513707	-1.0577372	0.35781797	-0.1091108	-0.82977692	0.45821252	-0.042799902	-1.0000325	0.76951386	-0.23696599	-0.94740723	0.85472911	0.14075393	-0.93146151	0.88316119	-0.18404731	-0.89664451	0.93071333	0.049881743	-1.1142042	0.92143467	-0.042861536	-0.94916039	1.3827543	-0.1995036	-1.0042462	1.3632283	0.11732025	-1.0568333	1.4051818	-0.053629542	-1.0447558	1.0468062	-0.28508384	-1.1491235	1.0494575	0.11938497	-0.84322077	0.91971821	-0.20099768	-1.1293215	0.82383214	0.20297765
68	0.268	-1.4077897	0.073069634	-0.19025456	-0.72449381	0.039360913	0.028263911	-1.3841821	0.20984807	-0.22186187	-0.86832207	0.053773432	0.054282563	-1.3594719	0.20076141	-0.14279398	-0.84456483	0.079160633	-0.02811961	-1.4171137	0.2614733	-0.17190032	-0.91481891	0.028793911	0.0040936254	-1.0592803	0.40266619	-0.22096599	-0.82996605	0.45102845	0.085439588	-1.0467723	0.35851074	-0.10828514	-0.82753867	0.45816373	-0.042584428	-0.99412992	0.77027482	-0.23615292	-0.94293603	0.8551036	0.14136307	-0.92632814	0.88427876	-0.1834693	-0.89170136	0.93139282	0.051030444	-1.109202	0.92211446	-0.042108791	-0.94428561	1.3838205	-0.19866785	-0.9988211	1.3640097	0.11821562	-1.0518455	1.4062573	-0.05252246	-1.0397424	1.0478635	-0.28395035	-1.1429559	1.0498687	0.120835	-0.83816775	0.92001957	-0.20083114	-1.1224653	0.82417246	0.20399231
69	0.272	-1.3982155	0.075507419	-0.19047952	-0.7244537	0.03932756	0.028215133	-1.3742357	0.2127018	-0.220679	-0.8683733	0.053752303	0.054298359	-1.3491259	0.20289743	-0.14177211	-0.8444064	0.079117298	-0.028185156	-1.4071483	0.26399018	-0.17016638	-0.9148736	0.028776287	0.0040786797	-1.0482912	0.40307439	-0.22020502	-0.82747555	0.4508844	0.08570784	-1.0358009	0.35935092	-0.10739723	-0.82513147	0.45811272	-0.042415484	-0.98833322	0.77112812	-0.23536664	-0.93856976	0.85546214	0.14197176	-0.92125076	0.88548636	-0.18294953	-0.88693906	0.93209045	0.052244337	-1.1042144	0.92284519	-0.041384508	-0.93946239	1.3849113	-0.19784975	-0.99341767	1.3648424	0.11907916	-1.0468798	1.4073417	-0.051431324	-1.0347792	1.0489482	-0.28285025	-1.1367413	1.0502797	0.12230097	-0.83309967	0.92037749	-0.20071923	-1.1153857	0.82458493	0.2050424
70	0.276	-1.3876727	0.077789411	-0.19066265	-0.72442801	0.039300545	0.028177114	-1.3641261	0.21544878	-0.21948602	-0.868429	0.053730296	0.054311007	-1.3387756	0.20505681	-0.14067493	-0.84426258	0.079075494	-0.028239129	-1.3973923	0.2663082	-0.16845811	-0.91492847	0.02875921	0.0040600246	-1.0372426	0.4036279	-0.21943685	-0.82506633	0.45071528	0.08595529	-1.024813	0.36030256	-0.10647574	-0.822679	0.45805253	-0.042255088	-0.98266018	0.77206374	-0.23459677	-0.93426694	0.85580847	0.14258378	-0.91619789	0.88680245	-0.18246273	-0.88231173	0.9327901	0.053436488	-1.0992535	0.92363614	-0.040722096	-0.93468747	1.3860316	-0.19702907	-0.98804188	1.3657507	0.11991834	-1.041945	1.4084293	-0.05037342	-1.029872	1.0500647	-0.28179674	-1.130514	1.050699	0.12376526	-0.82804401	0.92077363	-0.20070205	-1.1081534	0.8250387	0.20610132
71	0.28	-1.3762316	0.079957626	-0.1908633	-0.72441807	0.039280308	0.028149653	-1.3538099	0.21804188	-0.21829903	-0.86849146	0.053708252	0.054320853	-1.328513	0.20721723	-0.13948923	-0.84413868	0.079037901	-0.02827587	-1.3877161	0.26844171	-0.16685965	-0.91498379	0.028744925	0.0040383713	-1.0261276	0.40432144	-0.21865343	-0.82281089	0.45052687	0.086198569	-1.0137794	0.36133515	-0.10553679	-0.82035112	0.45797844	-0.042052767	-0.9771233	0.77307658	-0.23383333	-0.93001176	0.85614382	0.1431975	-0.91112766	0.8882476	-0.18196787	-0.87770253	0.93348061	0.054536191	-1.0943433	0.92448483	-0.040147422	-0.9299579	1.38718	-0.19620657	-0.98274013	1.366745	0.12073915	-1.0370496	1.4095198	-0.049361195	-1.0250219	1.0512123	-0.28079199	-1.1243398	1.0511419	0.12521117	-0.82304053	0.921201	-0.20079492	-1.1007734	0.82551111	0.20715784
72	0.284	-1.3640972	0.082012157	-0.19102954	-0.72442312	0.039267882	0.02813302	-1.3432974	0.22046009	-0.21711554	-0.86856164	0.053687971	0.054327181	-1.318207	0.20937622	-0.13825991	-0.84403124	0.079006263	-0.02829308	-1.3780613	0.27039605	-0.16537635	-0.91503917	0.028732646	0.0040148055	-1.0149791	0.40513092	-0.21784632	-0.82065451	0.45033479	0.086475227	-1.0026234	0.36243572	-0.10457946	-0.8182005	0.45788951	-0.041790958	-0.97171842	0.77416813	-0.23307694	-0.92580335	0.85647987	0.14381452	-0.9060222	0.88981821	-0.18143265	-0.87304416	0.9341681	0.055540752	-1.0895079	0.92538314	-0.039678554	-0.92528143	1.3883497	-0.19539718	-0.97754633	1.3678146	0.12154847	-1.0321991	1.4106166	-0.048393141	-1.0202316	1.0523849	-0.27982463	-1.1182605	1.0516225	0.12663097	-0.81817512	0.92166356	-0.20099167	-1.0932365	0.82600109	0.20821573
73	0.288	-1.3514407	0.083960393	-0.19110664	-0.72444499	0.039264083	0.02813153	-1.3326255	0.22271868	-0.2159228	-0.86863801	0.053670409	0.054328069	-1.307645	0.21153231	-0.13705648	-0.84394144	0.078980884	-0.02829126	-1.3684415	0.27215278	-0.16395733	-0.91509614	0.028725284	0.0039878958	-1.0038388	0.40603172	-0.21701592	-0.8185406	0.45014013	0.086823659	-0.99120597	0.36361633	-0.10362693	-0.81616363	0.45778744	-0.04148712	-0.96642771	0.7753431	-0.23234181	-0.92165494	0.85682845	0.14443159	-0.90092373	0.891462	-0.1808857	-0.86836249	0.93486465	0.056491354	-1.084742	0.92632657	-0.039312112	-0.92066573	1.3895356	-0.19460904	-0.97243105	1.3689342	0.1223616	-1.0273914	1.411721	-0.047456302	-1.0155105	1.0535785	-0.27888741	-1.1122424	1.0521439	0.12801742	-0.81352718	0.92214855	-0.2012856	-1.0855729	0.82652011	0.2092763
